<svg xmlns="http://www.w3.org/2000/svg" xmlns:xlink="http://www.w3.org/1999/xlink" version="1.1" x="0px" y="0px" viewBox="0 0 512 512" enable-background="new 0 0 512 512" xml:space="preserve"><g><path fill="#FFF" d="M443.5,213.4c0-1.4-1.4-144.9-119.3-144.9c-90.8,0-119,76.2-125.8,101.4c-1.6,0.3-3.3,0.7-5.2,1.5   c-11.6,4.7-21.2,14.5-31.4,24.8c-12.1,12.2-25.8,26.1-45.5,34.9c-40.7,18.2-46.8,37.6-47.4,39.7l-0.3,2.2   c0,13.1,6.7,20.1,12.4,23.7c37,23.4,156.3-31,177-40.7c7.5,0.1,15.1,0.8,20.3,1.7c-9.4,10.4-32,32.1-52.9,51.2   c-16,10.1-131.2,84.3-131.2,134.6h17c0-30.1,70.3-86.1,118.3-117c15.9,14.8,66.9,59,109.9,59c1.6,0,3.3-0.1,4.9-0.2   c15.7-1.3,28.5-8.7,38.1-22.1c9-12.6,16.9-25.6,23.7-38.5h37.5v-17h-28.9C434.8,264.9,443.5,226.6,443.5,213.4z M90,282.3   c-2-1.2-4-3.1-4.4-7.7c1.7-3.4,9.6-15.4,37.5-27.9c22.7-10.2,38.2-25.9,50.7-38.5c9.3-9.4,17.3-17.5,25.5-20.9   c5.5,8.5,17.4,14.7,31.8,22.2c6.8,3.5,13.8,7.1,20.3,11.2c5.3,3.2,5.6,6,5.7,6.8c0.5,4.3-3.5,10-6.2,12.9   C200.2,264.4,112.6,296.7,90,282.3z M368.4,353.3c-6.6,9.2-14.9,14.1-25.6,15c-35.1,2.9-82.7-36.9-99.8-52.5   c21.6-19.9,51.7-48.4,55-56.5c1.5-3.5,1.1-7.4-1-10.5c-1.3-2-4.9-7.3-25.3-9.2c1.8-4.1,3-8.8,2.5-13.8c-0.6-5.5-3.4-13.4-13.7-19.7   c-7.1-4.3-14.4-8.1-21.4-11.8c-9.6-5-22.3-11.6-25.3-16.2c3.2-15.2,23.8-92.7,110.4-92.7c101.1,0,102.3,126.6,102.3,127.8   C426.5,230.1,409.2,296.2,368.4,353.3z"/><circle fill="#FFF" cx="302.9" cy="149.5" r="12.8"/></g></svg>