<svg xmlns="http://www.w3.org/2000/svg" xmlns:xlink="http://www.w3.org/1999/xlink" version="1.1" x="0px" y="0px" viewBox="0 0 1200 1500" style="enable-background:new 0 0 1200 1200;" xml:space="preserve"><path d="M578.6,701.2c5.2,5.4,5,13.9-0.4,19.1c-2.6,2.5-6,3.8-9.4,3.8c-3.5,0-7.1-1.4-9.7-4.1l-25.5-26.6c-5.2-5.4-5-13.9,0.4-19.1  c5.4-5.2,13.9-5,19.1,0.4L578.6,701.2z M519.9,396.6c10.5,51.5-12.5,70.6-15.2,72.7c-2.4,1.9-5.3,2.7-8.1,2.7  c-4.1,0-8.1-1.8-10.8-5.4c-3.9-5.1-3.3-12,0.6-16.7c-17.2-6.7-35.6-20-37.9-43.3c-1.8-17.5,1.5-31.9,5.2-42c-6.6-1.3-11.5-7.1-11-14  c0.6-7.4,7.2-13,14.5-12.5C475,339.4,511.1,353.3,519.9,396.6z M495.5,424.4c0.2-6.1-0.2-13.4-2.1-22.4  c-2.6-12.8-8.5-21.1-14.9-26.6c-2.4,6.8-4.3,16.6-3.1,28.6C476.4,414.7,486.7,420.9,495.5,424.4z M829.5,459.1  c-5.4,118.1-43.6,204.3-105.3,239.1c1,4.5,1.5,7.3,1.5,7.5c2.8,21.2-0.6,35.8-4,50c-3.7,15.4-7.1,30-2.7,55.3  c8.2,47.2,29.9,172.5-115,218.1c-1.3,0.4-2.7,0.6-4,0.6s-2.7-0.2-4-0.6C451,983.5,472.8,858.1,481,810.9c4.4-25.3,0.9-39.8-2.7-55.3  c-3.4-14.2-6.8-28.8-4-50c0-0.2,0.6-3,1.5-7.5c-61.7-34.9-99.9-121.1-105.3-239.1c-3.4-73.3,17.9-103.1,36.8-129.4  c13.1-18.3,25.4-35.6,29.8-68.1c13.3-98.6,147.9-91.7,162.9-90.6c14.9-1.1,149.7-8,163,90.6c4.4,32.5,16.7,49.8,29.8,68.1  C811.5,356,832.9,385.8,829.5,459.1z M695.5,749.4c3-12.9,5.7-24,3.5-40.2c-4.6-34.7-30.1-119.9-45.6-152.6  c-15.3,32.8-40.6,74.3-41.9,76.3c-2.5,4-6.8,6.4-11.5,6.4s-9-2.4-11.5-6.4c-1.2-2-26.6-43.5-41.8-76.3  c-15.5,32.7-41,117.9-45.7,152.6c-2.1,16.2,0.5,27.3,3.5,40.2c3.9,16.6,8.4,35.4,3.1,66.1c-12.7,72.9-11.4,151.8,92.4,186.4  c103.9-34.6,105.1-113.5,92.4-186.4C687.1,784.8,691.6,766,695.5,749.4z M770.8,345.3c-14.4-20.2-29.3-41.1-34.6-80.2  c-10.3-76.8-133.8-67.3-135.1-67.2c-0.8,0.1-1.5,0.1-2.3,0c-1.2-0.1-124.7-9.6-135,67.2c-5.3,39.2-20.2,60-34.6,80.2  c-17.8,25-34.7,48.5-31.8,112.5c4.7,103.7,35.3,179.8,84.6,212.6c2.1-8.6,4.5-18.2,7.2-28.3c-8.4-12.6-39.6-66.4-14.8-136.8  c2.5-7,10.2-10.8,17.2-8.3c7,2.5,10.7,10.2,8.3,17.2c-13.1,37.4-7.2,69.1,0.4,89.7c13.7-43.5,31.1-84.6,48.3-84.6  c3.6,0,12.3,1.3,16.8,12.9c7.6,19.5,23.5,48.2,34.5,67.2c11-19,27-47.8,34.6-67.2c4.5-11.7,13.3-12.9,16.8-12.9  c17.3,0,34.7,41.1,48.4,84.7c7.6-20.5,13.5-52.1,0.3-89.8c-2.5-7,1.2-14.7,8.3-17.2c7-2.5,14.7,1.2,17.2,8.3  c24.7,70.5-6.4,124.2-14.8,136.8c2.7,10.2,5.1,19.8,7.2,28.4c49.3-32.8,79.9-108.8,84.6-212.6C805.5,393.9,788.6,370.3,770.8,345.3z   M646.9,674.5l-25.5,26.6c-5.2,5.4-5,13.9,0.4,19.1c2.6,2.5,6,3.8,9.4,3.8c3.6,0,7.1-1.4,9.8-4.1l25.5-26.6c5.2-5.4,5-13.9-0.4-19.1  C660.6,669,652.1,669.2,646.9,674.5z M757.2,350.6c0.5,6.9-4.3,12.8-11,14c3.8,10.1,7,24.5,5.2,42c-2.4,23.4-20.7,36.7-38,43.4  c3.8,4.9,4.2,11.9,0.2,16.9c-2.7,3.3-6.6,5-10.5,5c-2.7,0-5.5-0.9-7.9-2.7c-2.7-2-25.7-21.1-15.2-72.7c8.8-43.3,44.8-57.2,62.7-58.5  C750.2,337.5,756.7,343.1,757.2,350.6z M721.4,375.3c-6.4,5.5-12.3,13.8-14.9,26.7c-1.8,9-2.3,16.3-2,22.4c8.8-3.5,19-9.7,20.1-20.4  C725.8,392,723.8,382.2,721.4,375.3z"/><text x="0" y="1215" fill="#000000" font-size="5px" font-weight="bold" font-family="'Helvetica Neue', Helvetica, Arial-Unicode, Arial, Sans-serif">Created by Wahyu Prihantoro</text><text x="0" y="1220" fill="#000000" font-size="5px" font-weight="bold" font-family="'Helvetica Neue', Helvetica, Arial-Unicode, Arial, Sans-serif">from the Noun Project</text></svg>